<svg width="24" height="24" viewBox="0 0 24 24" fill="none" xmlns="http://www.w3.org/2000/svg">
<g id="Frame">
<path id="Vector" d="M13 20.8758L18.4996 15.4084C21.5371 12.389 21.5371 7.49332 18.4996 4.47379C15.4623 1.45426 10.5377 1.45426 7.50027 4.47379C4.46286 7.49332 4.46286 12.389 7.50027 15.4084L13 20.8758ZM13 24L5.92893 16.9706C2.02369 13.0883 2.02369 6.79395 5.92893 2.91169C9.83417 -0.970564 16.1658 -0.970564 20.0711 2.91169C23.9763 6.79395 23.9763 13.0883 20.0711 16.9706L13 24ZM13 12.1503C14.2273 12.1503 15.2222 11.1612 15.2222 9.94114C15.2222 8.72106 14.2273 7.73199 13 7.73199C11.7727 7.73199 10.7778 8.72106 10.7778 9.94114C10.7778 11.1612 11.7727 12.1503 13 12.1503ZM13 14.3594C10.5454 14.3594 8.55555 12.3812 8.55555 9.94114C8.55555 7.50098 10.5454 5.52285 13 5.52285C15.4545 5.52285 17.4444 7.50098 17.4444 9.94114C17.4444 12.3812 15.4545 14.3594 13 14.3594Z" fill="#CFF846"/>
</g>
</svg>
