<svg width="170" height="64" viewBox="0 0 170 64" fill="none" xmlns="http://www.w3.org/2000/svg">
<g id="Camada 2">
<g id="Camada 1">
<path id="Vector" d="M14.3027 25.5004C9.9614 25.5004 6.57646 24.4242 4.14785 22.2716C1.71924 20.119 0.503286 16.9543 0.5 12.7773C0.5 8.56752 1.71431 5.38469 4.14292 3.22885C6.57153 1.073 9.95811 -0.00327885 14.3027 7.50308e-06H26.4391C29.2884 7.50308e-06 31.4656 0.672066 32.9708 2.01618C34.4759 3.3603 35.2301 5.27953 35.2334 7.77387C35.2334 12.8578 32.302 15.3998 26.4391 15.3998H8.07668C8.75695 18.4134 10.8323 19.9186 14.3027 19.9153H33.9715V25.5004H14.3027ZM14.3027 5.58516C10.967 5.58516 8.90977 6.995 8.1309 9.81469H26.099C26.3782 9.82741 26.6569 9.78182 26.9175 9.68082C27.1781 9.57982 27.4147 9.42563 27.6124 9.22807C27.8069 9.01116 27.9566 8.75798 28.0531 8.48305C28.1495 8.20813 28.1907 7.91687 28.1743 7.62598C28.1743 6.26543 27.4743 5.58516 26.0842 5.58516H14.3027Z" fill="#F8FAFF"/>
<path id="Vector_2" d="M39.0489 25.2589V0.241562H58.1754C60.9951 0.241562 63.0688 0.946484 64.3965 2.35633C65.7241 3.76617 66.3814 5.61967 66.3683 7.91683V13.1175H59.255V8.79428C59.255 6.84877 58.2839 5.87601 56.3416 5.87601H46.1917V25.2589H39.0489Z" fill="#F8FAFF"/>
<path id="Vector_3" d="M82.5125 25.5004C78.1745 25.5004 74.7912 24.4242 72.3626 22.2716C69.934 20.119 68.7197 16.9543 68.7197 12.7773C68.7197 8.56752 69.934 5.38469 72.3626 3.22885C74.7912 1.073 78.1745 -0.00327885 82.5125 7.50308e-06H94.6539C97.5032 7.50308e-06 99.6804 0.672066 101.186 2.01618C102.691 3.3603 103.443 5.27953 103.443 7.77387C103.443 12.8578 100.513 15.3998 94.6539 15.3998H76.2963C76.9766 18.4134 79.0487 19.9186 82.5125 19.9153H102.186V25.5004H82.5125ZM82.5125 5.58516C79.1801 5.58516 77.1245 6.995 76.3456 9.81469H94.3187C94.6003 9.8295 94.8819 9.78494 95.1451 9.68388C95.4084 9.58281 95.6475 9.42752 95.8468 9.22807C96.0407 9.01092 96.1897 8.75758 96.2853 8.48264C96.3809 8.20769 96.4212 7.91656 96.4039 7.62598C96.4039 6.26543 95.7088 5.58516 94.3187 5.58516H82.5125Z" fill="#F8FAFF"/>
<path id="Vector_4" d="M24.285 63.7585C21.4719 63.7585 19.3998 63.0552 18.0688 61.6486C16.7379 60.2421 16.0806 58.3869 16.097 56.0832V44.3312H8.84077V38.7411H16.0773V31.056H23.1216V38.7411H33.5278V44.3312H23.1216V55.2107C23.1216 57.1825 24.0927 58.1684 26.035 58.1684H34.8785V63.7535L24.285 63.7585Z" fill="#F8FAFF"/>
<path id="Vector_5" d="M50.2438 64C45.9058 64 42.5225 62.9237 40.0939 60.7712C37.6653 58.6186 36.451 55.4506 36.451 51.267C36.451 47.0572 37.6653 43.8744 40.0939 41.7186C42.5225 39.5627 45.9058 38.4864 50.2438 38.4897H62.3902C65.2394 38.4897 67.4166 39.1618 68.9218 40.5059C70.4269 41.85 71.1795 43.7692 71.1795 46.2636C71.1795 51.3476 68.2497 53.8896 62.3902 53.8896H44.0277C44.708 56.8998 46.78 58.405 50.2438 58.405H69.9176V63.9901L50.2438 64ZM50.2438 44.0847C46.9115 44.0847 44.8559 45.4929 44.077 48.3093H62.05C62.3316 48.3241 62.6132 48.2796 62.8765 48.1785C63.1398 48.0775 63.3788 47.9222 63.5782 47.7227C63.7723 47.5057 63.9214 47.2524 64.017 46.9774C64.1126 46.7024 64.1528 46.4112 64.1352 46.1206C64.1352 44.7601 63.4402 44.0798 62.05 44.0798L50.2438 44.0847Z" fill="#F8FAFF"/>
<path id="Vector_6" d="M87.4173 64C83.0794 64 79.6961 62.9237 77.2674 60.7712C74.8388 58.6186 73.6245 55.4506 73.6245 51.267C73.6245 47.0572 74.8388 43.8744 77.2674 41.7186C79.6961 39.5627 83.0794 38.4864 87.4173 38.4897H103.685V44.0847H87.4173C85.3141 44.0847 83.7038 44.6681 82.5864 45.8347C81.469 47.0014 80.9104 48.8089 80.9104 51.2572C80.9104 53.6825 81.469 55.4801 82.5864 56.6501C83.7038 57.82 85.3141 58.4017 87.4173 58.3951H104.178V63.9803L87.4173 64Z" fill="#F8FAFF"/>
<g id="Group 3">
<path id="Vector_7" d="M143.101 55.4917C142.537 55.4914 141.985 55.324 141.515 55.0104C141.045 54.6968 140.679 54.2512 140.462 53.7297C140.246 53.2083 140.188 52.6343 140.297 52.0802C140.406 51.5261 140.677 51.0168 141.075 50.6164L162.464 29.1483L141.075 7.68022C140.799 7.41689 140.579 7.10105 140.427 6.75129C140.275 6.40153 140.195 6.02491 140.191 5.64361C140.186 5.26231 140.259 4.88402 140.403 4.53102C140.547 4.17801 140.76 3.85742 141.03 3.58811C141.3 3.3188 141.621 3.10622 141.975 2.96287C142.328 2.81952 142.707 2.74831 143.088 2.75342C143.469 2.75852 143.846 2.83985 144.195 2.99262C144.544 3.14538 144.86 3.36649 145.122 3.64294L168.528 27.1124C169.061 27.649 169.36 28.3746 169.36 29.131C169.36 29.8874 169.061 30.6131 168.528 31.1497L145.122 54.6389C144.858 54.9073 144.544 55.1208 144.197 55.2672C143.85 55.4135 143.478 55.4898 143.101 55.4917Z" fill="#CFF846"/>
<path id="Vector_8" d="M126.76 55.4917C126.386 55.4926 126.016 55.4188 125.67 55.2748C125.147 55.0596 124.699 54.6935 124.383 54.223C124.068 53.7525 123.9 53.1988 123.901 52.6325V39.3623L115.737 31.1645C115.472 30.8994 115.262 30.5847 115.118 30.2384C114.975 29.892 114.901 29.5208 114.901 29.1458C114.901 28.7709 114.975 28.3997 115.118 28.0533C115.262 27.7069 115.472 27.3922 115.737 27.1272L123.901 18.9343V5.65913C123.901 5.09322 124.069 4.54012 124.384 4.06986C124.699 3.59959 125.146 3.23333 125.669 3.01743C126.192 2.80154 126.768 2.74574 127.322 2.85709C127.877 2.96844 128.387 3.24194 128.786 3.64295L152.186 27.1124C152.451 27.3775 152.662 27.6922 152.805 28.0385C152.949 28.3849 153.023 28.7561 153.023 29.1311C153.023 29.506 152.949 29.8772 152.805 30.2236C152.662 30.5699 152.451 30.8846 152.186 31.1497L128.786 54.6389C128.521 54.9077 128.206 55.1214 127.858 55.2678C127.51 55.4141 127.137 55.4902 126.76 55.4917ZM121.796 29.1483L128.786 36.163C129.319 36.6986 129.619 37.4234 129.619 38.1792V45.7164L146.128 29.1483L129.619 12.5802V20.1125C129.619 20.8697 129.319 21.5962 128.786 22.1336L121.796 29.1483Z" fill="#CFF846"/>
</g>
</g>
</g>
</svg>
